<svg width="20" height="16" viewBox="0 0 20 16" fill="none" xmlns="http://www.w3.org/2000/svg">
<path d="M0.219971 8.53005L7.21997 15.5301C7.36597 15.6761 7.558 15.75 7.75 15.75C7.942 15.75 8.13403 15.6771 8.28003 15.5301C8.57303 15.2371 8.57303 14.762 8.28003 14.469L2.56 8.74905H18.75C19.164 8.74905 19.5 8.41305 19.5 7.99905C19.5 7.58505 19.164 7.24905 18.75 7.24905H2.56097L8.28101 1.52902C8.57401 1.23602 8.57401 0.761041 8.28101 0.468041C7.98801 0.175041 7.51297 0.175041 7.21997 0.468041L0.219971 7.46804C-0.0730286 7.76304 -0.0730286 8.23705 0.219971 8.53005Z" fill="#7400FF"/>
</svg>
