<svg width="8" height="9" viewBox="0 0 8 9" fill="none" xmlns="http://www.w3.org/2000/svg">
<g opacity="0.9">
<path d="M3.4345 1.68461C3.4055 1.71286 3.2815 1.81953 3.1795 1.9189C2.538 2.50146 1.488 4.02119 1.1675 4.81661C1.116 4.93741 1.007 5.24282 1 5.40599C1 5.56235 1.036 5.7114 1.109 5.85363C1.211 6.03093 1.3715 6.17316 1.561 6.2511C1.6925 6.30127 2.086 6.3792 2.093 6.3792C2.5235 6.45714 3.223 6.5 3.996 6.5C4.7325 6.5 5.4035 6.45714 5.8405 6.39333C5.8475 6.38602 6.3365 6.30809 6.504 6.22284C6.81 6.06649 7 5.76108 7 5.43424V5.40599C6.9925 5.19313 6.8025 4.74549 6.7955 4.74549C6.4745 3.99294 5.476 2.50828 4.8125 1.91159C4.8125 1.91159 4.642 1.74355 4.5355 1.67048C4.3825 1.5565 4.193 1.5 4.0035 1.5C3.792 1.5 3.595 1.56381 3.4345 1.68461Z" fill="#111111"/>
</g>
</svg>
