<svg width="8" height="9" viewBox="0 0 8 9" fill="none" xmlns="http://www.w3.org/2000/svg">
<g opacity="0.9">
<path d="M3.4345 7.31539C3.4055 7.28714 3.2815 7.18047 3.1795 7.0811C2.538 6.49854 1.488 4.97881 1.1675 4.18339C1.116 4.06259 1.007 3.75718 1 3.59401C1 3.43765 1.036 3.2886 1.109 3.14637C1.211 2.96907 1.3715 2.82684 1.561 2.7489C1.6925 2.69873 2.086 2.6208 2.093 2.6208C2.5235 2.54286 3.223 2.5 3.996 2.5C4.7325 2.5 5.4035 2.54286 5.8405 2.60667C5.8475 2.61398 6.3365 2.69191 6.504 2.77716C6.81 2.93351 7 3.23892 7 3.56576V3.59401C6.9925 3.80687 6.8025 4.25451 6.7955 4.25451C6.4745 5.00706 5.476 6.49172 4.8125 7.08841C4.8125 7.08841 4.642 7.25645 4.5355 7.32952C4.3825 7.4435 4.193 7.5 4.0035 7.5C3.792 7.5 3.595 7.43619 3.4345 7.31539Z" fill="#111111"/>
</g>
</svg>
