<svg width="40" height="40" viewBox="0 0 40 40" fill="none" xmlns="http://www.w3.org/2000/svg">
<rect width="40" height="40" rx="20" fill="#F8F2FF"/>
<path d="M11.8498 20.4418L17.6831 26.2751C17.8048 26.3968 17.9648 26.4584 18.1248 26.4584C18.2848 26.4584 18.4449 26.3976 18.5665 26.2751C18.8107 26.0309 18.8107 25.6351 18.5665 25.3909L13.7998 20.6242H27.2915C27.6365 20.6242 27.9165 20.3442 27.9165 19.9992C27.9165 19.6542 27.6365 19.3742 27.2915 19.3742H13.8006L18.5673 14.6076C18.8115 14.3634 18.8115 13.9676 18.5673 13.7234C18.3232 13.4792 17.9273 13.4792 17.6831 13.7234L11.8498 19.5567C11.6056 19.8026 11.6056 20.1976 11.8498 20.4418Z" fill="#7400FF"/>
</svg>
