<svg width="24" height="24" viewBox="0 0 24 24" fill="none" xmlns="http://www.w3.org/2000/svg">
<path fill-rule="evenodd" clip-rule="evenodd" d="M2.02544 12.0001C2.13836 12.197 2.29381 12.4573 2.49051 12.7618C2.95386 13.4793 3.6402 14.4336 4.53168 15.3846C6.33107 17.3039 8.85965 19.1001 12.0001 19.1001C15.1405 19.1001 17.6691 17.3039 19.4685 15.3846C20.36 14.4336 21.0463 13.4793 21.5097 12.7618C21.7064 12.4573 21.8618 12.197 21.9748 12.0001C21.8618 11.8031 21.7064 11.5429 21.5097 11.2384C21.0463 10.5209 20.36 9.56656 19.4685 8.61564C17.6691 6.6963 15.1405 4.9001 12.0001 4.9001C8.85965 4.9001 6.33107 6.6963 4.53168 8.61564C3.6402 9.56656 2.95386 10.5209 2.49051 11.2384C2.29381 11.5429 2.13836 11.8031 2.02544 12.0001ZM23.0001 12.0001C23.8051 11.5976 23.8049 11.5973 23.8048 11.597L23.8043 11.5961L23.8032 11.5939L23.7999 11.5874L23.7888 11.5656C23.7795 11.5474 23.7662 11.5218 23.749 11.4893C23.7145 11.4243 23.6645 11.3316 23.599 11.2151C23.468 10.9823 23.275 10.654 23.0218 10.2618C22.5164 9.47928 21.7652 8.43363 20.7817 7.38455C18.8311 5.30389 15.8597 3.1001 12.0001 3.1001C8.14054 3.1001 5.16913 5.30389 3.21851 7.38455C2.235 8.43363 1.48383 9.47928 0.978437 10.2618C0.725181 10.654 0.53217 10.9823 0.401227 11.2151C0.335721 11.3316 0.285647 11.4243 0.251239 11.4893C0.234031 11.5218 0.220732 11.5474 0.211371 11.5656L0.200281 11.5874L0.196956 11.5939L0.195849 11.5961L0.195435 11.597C0.195266 11.5973 0.195113 11.5976 1.0001 12.0001L0.195113 11.5976C0.0684258 11.851 0.0684258 12.1492 0.195113 12.4026L1.0001 12.0001C0.195113 12.4026 0.195266 12.4029 0.195435 12.4032L0.195849 12.4041L0.196956 12.4063L0.200281 12.4128L0.211371 12.4346C0.220732 12.4528 0.234031 12.4784 0.251239 12.5109C0.285647 12.5759 0.335721 12.6686 0.401227 12.7851C0.53217 13.0179 0.725181 13.3462 0.978437 13.7384C1.48383 14.5209 2.235 15.5666 3.21851 16.6156C5.16913 18.6963 8.14054 20.9001 12.0001 20.9001C15.8597 20.9001 18.8311 18.6963 20.7817 16.6156C21.7652 15.5666 22.5164 14.5209 23.0218 13.7384C23.275 13.3462 23.468 13.0179 23.599 12.7851C23.6645 12.6686 23.7145 12.5759 23.749 12.5109C23.7662 12.4784 23.7795 12.4528 23.7888 12.4346L23.7999 12.4128L23.8032 12.4063L23.8043 12.4041L23.8048 12.4032C23.8049 12.4029 23.8051 12.4026 23.0001 12.0001ZM23.0001 12.0001L23.8051 12.4026C23.9318 12.1492 23.9318 11.851 23.8051 11.5976L23.0001 12.0001ZM22.1955 12.4033C22.1955 12.4035 22.1955 12.4035 22.1955 12.4033L22.1955 12.4033ZM12.0001 9.9001C10.8403 9.9001 9.9001 10.8403 9.9001 12.0001C9.9001 13.1599 10.8403 14.1001 12.0001 14.1001C13.1599 14.1001 14.1001 13.1599 14.1001 12.0001C14.1001 10.8403 13.1599 9.9001 12.0001 9.9001ZM8.1001 12.0001C8.1001 9.84619 9.84619 8.1001 12.0001 8.1001C14.154 8.1001 15.9001 9.84619 15.9001 12.0001C15.9001 14.154 14.154 15.9001 12.0001 15.9001C9.84619 15.9001 8.1001 14.154 8.1001 12.0001Z" fill="#111111"/>
</svg>
