<svg width="93" height="92" viewBox="0 0 93 92" fill="none" xmlns="http://www.w3.org/2000/svg">
<g clip-path="url(#clip0_5_4829)">
<path fill-rule="evenodd" clip-rule="evenodd" d="M92.4748 47.5366C92.4916 47.0265 92.5 46.5142 92.5 46C92.5 20.5949 71.9051 0 46.5 0C22.3569 0 2.55802 18.5996 0.650532 42.2515L25.7158 54.5056C26.8308 52.1945 29.1962 50.5999 31.934 50.5999C34.3177 50.5999 36.4191 51.8086 37.6586 53.6466L57.3662 37.3879C57.279 36.9499 57.2333 36.4971 57.2333 36.0335C57.2333 32.2227 60.3225 29.1335 64.1333 29.1335C67.9441 29.1335 71.0333 32.2227 71.0333 36.0335C71.0333 36.2011 71.0273 36.3673 71.0156 36.5319L92.4748 47.5366ZM38.5427 55.51L58.0966 39.378C59.2739 41.4985 61.536 42.9335 64.1333 42.9335C67.0574 42.9335 69.5566 41.1146 70.5613 38.5466L92.3517 49.7211C90.4573 73.3861 70.6524 92 46.5 92C21.0949 92 0.5 71.4051 0.5 46C0.5 45.4702 0.508955 44.9426 0.526722 44.4172L25.1152 56.4382C25.0618 56.7843 25.034 57.1389 25.034 57.4999C25.034 61.3107 28.1233 64.3999 31.934 64.3999C35.7448 64.3999 38.834 61.3107 38.834 57.4999C38.834 56.8081 38.7322 56.1401 38.5427 55.51Z" fill="#7400FF"/>
<path d="M92.5 46C92.5 71.4051 71.9051 92 46.5 92C21.0949 92 0.5 71.4051 0.5 46C0.5 20.5949 21.0949 0 46.5 0C71.9051 0 92.5 20.5949 92.5 46Z" fill="#7400FF"/>
<path d="M15.62 57.36C13.54 57.36 11.9667 56.76 10.9 55.56C9.86 54.3333 9.34 52.5733 9.34 50.28V30.56C9.34 29.8933 9.51333 29.3867 9.86 29.04C10.2067 28.6933 10.7 28.52 11.34 28.52C11.98 28.52 12.4733 28.6933 12.82 29.04C13.1933 29.3867 13.38 29.8933 13.38 30.56V50.04C13.38 51.3733 13.6467 52.3733 14.18 53.04C14.74 53.68 15.54 54 16.58 54C16.82 54 17.0333 54 17.22 54C17.4067 53.9733 17.5933 53.9467 17.78 53.92C18.1 53.8933 18.3267 53.9867 18.46 54.2C18.5933 54.3867 18.66 54.7867 18.66 55.4C18.66 55.96 18.54 56.4 18.3 56.72C18.06 57.0133 17.6733 57.2 17.14 57.28C16.9 57.3067 16.6467 57.32 16.38 57.32C16.1133 57.3467 15.86 57.36 15.62 57.36ZM29.8513 57.36C27.8779 57.36 26.1713 56.9467 24.7313 56.12C23.3179 55.2933 22.2113 54.12 21.4113 52.6C20.6113 51.08 20.2113 49.2933 20.2113 47.24C20.2113 45.6667 20.4379 44.2667 20.8913 43.04C21.3446 41.8133 21.9846 40.76 22.8113 39.88C23.6646 38.9733 24.6779 38.2933 25.8513 37.84C27.0513 37.36 28.3846 37.12 29.8513 37.12C31.7979 37.12 33.4779 37.5333 34.8913 38.36C36.3313 39.1867 37.4513 40.36 38.2513 41.88C39.0513 43.3733 39.4513 45.16 39.4513 47.24C39.4513 48.7867 39.2246 50.1867 38.7713 51.44C38.3179 52.6933 37.6646 53.76 36.8113 54.64C35.9846 55.52 34.9713 56.2 33.7713 56.68C32.5979 57.1333 31.2913 57.36 29.8513 57.36ZM29.8513 54.24C30.9446 54.24 31.9046 53.9733 32.7313 53.44C33.5579 52.9067 34.1979 52.12 34.6513 51.08C35.1313 50.04 35.3713 48.76 35.3713 47.24C35.3713 44.9467 34.8646 43.2133 33.8513 42.04C32.8379 40.8667 31.5046 40.28 29.8513 40.28C28.7313 40.28 27.7579 40.5467 26.9313 41.08C26.1046 41.5867 25.4513 42.36 24.9713 43.4C24.5179 44.44 24.2913 45.72 24.2913 47.24C24.2913 49.5067 24.7979 51.24 25.8113 52.44C26.8246 53.64 28.1713 54.24 29.8513 54.24ZM52.8284 64.56C51.3884 64.56 49.9884 64.4133 48.6284 64.12C47.2951 63.8267 46.0818 63.3467 44.9884 62.68C44.5884 62.4667 44.3218 62.2 44.1884 61.88C44.0551 61.5867 44.0151 61.28 44.0684 60.96C44.1484 60.64 44.2951 60.36 44.5084 60.12C44.7218 59.88 44.9751 59.72 45.2684 59.64C45.5884 59.56 45.9218 59.6133 46.2684 59.8C47.4418 60.44 48.5484 60.8667 49.5884 61.08C50.6551 61.32 51.6418 61.44 52.5484 61.44C54.4151 61.44 55.8151 60.96 56.7484 60C57.6818 59.0667 58.1484 57.68 58.1484 55.84V51.76H58.5084C58.1084 53.2267 57.2684 54.3867 55.9884 55.24C54.7084 56.0933 53.2284 56.52 51.5484 56.52C49.7884 56.52 48.2551 56.12 46.9484 55.32C45.6418 54.4933 44.6284 53.36 43.9084 51.92C43.1884 50.4533 42.8284 48.7467 42.8284 46.8C42.8284 45.3333 43.0284 44.0133 43.4284 42.84C43.8551 41.6667 44.4418 40.6533 45.1884 39.8C45.9618 38.9467 46.8818 38.2933 47.9484 37.84C49.0418 37.36 50.2418 37.12 51.5484 37.12C53.2551 37.12 54.7351 37.5467 55.9884 38.4C57.2684 39.2533 58.0951 40.4133 58.4684 41.88L58.0684 42.56V39.24C58.0684 38.5733 58.2418 38.0667 58.5884 37.72C58.9618 37.3733 59.4551 37.2 60.0684 37.2C60.7084 37.2 61.2018 37.3733 61.5484 37.72C61.8951 38.0667 62.0684 38.5733 62.0684 39.24V55.36C62.0684 58.4 61.2818 60.6933 59.7084 62.24C58.1351 63.7867 55.8418 64.56 52.8284 64.56ZM52.5084 53.36C53.6818 53.36 54.6818 53.0933 55.5084 52.56C56.3351 52.0267 56.9751 51.2667 57.4284 50.28C57.8818 49.2933 58.1084 48.1333 58.1084 46.8C58.1084 44.8 57.6018 43.2133 56.5884 42.04C55.6018 40.8667 54.2418 40.28 52.5084 40.28C51.3618 40.28 50.3751 40.5467 49.5484 41.08C48.7218 41.6133 48.0684 42.3733 47.5884 43.36C47.1351 44.32 46.9084 45.4667 46.9084 46.8C46.9084 48.8267 47.4151 50.4267 48.4284 51.6C49.4418 52.7733 50.8018 53.36 52.5084 53.36ZM76.2184 57.36C74.2451 57.36 72.5384 56.9467 71.0984 56.12C69.6851 55.2933 68.5784 54.12 67.7784 52.6C66.9784 51.08 66.5784 49.2933 66.5784 47.24C66.5784 45.6667 66.8051 44.2667 67.2584 43.04C67.7118 41.8133 68.3518 40.76 69.1784 39.88C70.0318 38.9733 71.0451 38.2933 72.2184 37.84C73.4184 37.36 74.7518 37.12 76.2184 37.12C78.1651 37.12 79.8451 37.5333 81.2584 38.36C82.6984 39.1867 83.8184 40.36 84.6184 41.88C85.4184 43.3733 85.8184 45.16 85.8184 47.24C85.8184 48.7867 85.5918 50.1867 85.1384 51.44C84.6851 52.6933 84.0318 53.76 83.1784 54.64C82.3518 55.52 81.3384 56.2 80.1384 56.68C78.9651 57.1333 77.6584 57.36 76.2184 57.36ZM76.2184 54.24C77.3118 54.24 78.2718 53.9733 79.0984 53.44C79.9251 52.9067 80.5651 52.12 81.0184 51.08C81.4984 50.04 81.7384 48.76 81.7384 47.24C81.7384 44.9467 81.2318 43.2133 80.2184 42.04C79.2051 40.8667 77.8718 40.28 76.2184 40.28C75.0984 40.28 74.1251 40.5467 73.2984 41.08C72.4718 41.5867 71.8184 42.36 71.3384 43.4C70.8851 44.44 70.6584 45.72 70.6584 47.24C70.6584 49.5067 71.1651 51.24 72.1784 52.44C73.1918 53.64 74.5384 54.24 76.2184 54.24Z" fill="white"/>
</g>
<defs>
<clipPath id="clip0_5_4829">
<rect width="92" height="92" fill="white" transform="translate(0.5)"/>
</clipPath>
</defs>
</svg>
